<?xml version="1.0" encoding="UTF-8"?>
<svg version="1.1" xmlns="http://www.w3.org/2000/svg" width="677" height="369">
<path d="M0 0 C8.77192298 -0.06993687 17.54374795 -0.12303068 26.31589031 -0.15543652 C30.3904636 -0.17100053 34.4648442 -0.19206621 38.53930664 -0.22631836 C42.4815691 -0.25924653 46.42364785 -0.27692239 50.36603737 -0.28463173 C51.8597178 -0.29011592 53.35338977 -0.30082244 54.84699059 -0.31719017 C71.90423439 -0.49644299 85.48742543 2.3044649 98.26171875 14.0859375 C99.9898762 15.98278711 101.51215159 17.91112808 103 20 C103.45632813 20.58910156 103.91265625 21.17820313 104.3828125 21.78515625 C111.35132591 31.61201199 113.29078434 44.23952043 112 56 C110.38518576 64.20360176 107.9585371 71.26302103 103 78 C102.58621094 78.64839844 102.17242187 79.29679687 101.74609375 79.96484375 C99.20523699 83.85976211 97.52252611 85.4924913 93 87 C92.505 88.485 92.505 88.485 92 90 C85.40652613 94.40947205 77.51371439 96.68908097 70 99 C70.97839844 100.2684375 70.97839844 100.2684375 71.9765625 101.5625 C79.91724738 111.865904 79.91724738 111.865904 83 116 C85.66043571 119.56240679 88.35682424 123.09689417 91.0625 126.625 C91.47435547 127.16382813 91.88621094 127.70265625 92.31054688 128.2578125 C94.3779191 130.94836391 96.48199062 133.59758872 98.6640625 136.1953125 C105 143.80267559 105 143.80267559 105 147 C101.85434954 147.08845016 98.70902625 147.14086835 95.5625 147.1875 C94.68400391 147.21263672 93.80550781 147.23777344 92.90039062 147.26367188 C84.22755999 147.35968107 76.85107217 145.44572403 70 140 C70 139.34 70 138.68 70 138 C69.01 137.67 68.02 137.34 67 137 C65.39013672 135.18994141 65.39013672 135.18994141 63.6796875 132.8515625 C63.06222656 132.01109375 62.44476563 131.170625 61.80859375 130.3046875 C61.17050781 129.42039063 60.53242188 128.53609375 59.875 127.625 C59.22917969 126.7484375 58.58335937 125.871875 57.91796875 124.96875 C53.13866433 118.415993 53.13866433 118.415993 52 115 C51.34 115 50.68 115 50 115 C48.62101957 113.30189246 47.32040522 111.53964541 46.0625 109.75 C45.37285156 108.77546875 44.68320312 107.8009375 43.97265625 106.796875 C43.32167969 105.87390625 42.67070312 104.9509375 42 104 C41.00567822 102.66242683 40.00807145 101.3272414 39 100 C33.21067657 100.27240744 33.21067657 100.27240744 28.25 103 C23.3258988 109.56546827 21.44587205 116.71546607 19.57885742 124.60668945 C17.76886086 132.20155953 15.38899914 139.56755824 13 147 C4.75 147 -3.5 147 -12 147 C-10.75208522 140.7604261 -9.4939572 134.89638455 -7.625 128.875 C-6.09181855 123.84847952 -4.69409553 118.83579234 -3.52758789 113.71142578 C-0.4546104 100.33873107 4.95630208 89.03850082 16.125 80.6875 C27.37322958 73.8720458 40.74613111 74.55689671 53.43334961 74.63964844 C63.4100744 74.67885399 72.09965863 74.33032258 79.89282227 67.29003906 C84.68463696 62.31873012 87.06297556 56.48725433 87.4375 49.625 C87.18337428 42.94842438 84.80733071 37.07181813 80.4375 32.0625 C79.633125 31.381875 78.82875 30.70125 78 30 C77.54625 29.443125 77.0925 28.88625 76.625 28.3125 C71.18483351 23.91851937 63.19729229 24.70498774 56.625 24.69140625 C54.40103894 24.6662552 52.17708067 24.64085705 49.953125 24.61523438 C46.47070993 24.58647643 42.98834296 24.56243728 39.50585938 24.54370117 C36.12866148 24.52200968 32.75200843 24.48257971 29.375 24.44140625 C28.33939941 24.44129044 27.30379883 24.44117462 26.23681641 24.4410553 C17.23565205 24.31827928 11.43196212 22.11337218 4.734375 15.9609375 C0.42110042 11.08421714 -0.05154462 6.31045737 0 0 Z " fill="#0B0B0B" transform="translate(257,111)"/>
<path d="M0 0 C5.04962778 -0.0499887 10.09910685 -0.08599384 15.14892578 -0.10986328 C16.86151646 -0.11982955 18.57409054 -0.13340747 20.28662109 -0.15087891 C34.22969419 -0.28941324 46.63276101 -0.20197449 59 7 C60.03060547 7.55494141 60.03060547 7.55494141 61.08203125 8.12109375 C74.71589617 15.89266566 83.07657907 29.12749953 87.56225586 43.84472656 C88.54053461 48.66137175 88.27158296 53.66609377 88.3125 58.5625 C88.35600586 60.25729492 88.35600586 60.25729492 88.40039062 61.98632812 C88.45883638 69.79557985 87.15218586 75.87472411 84 83 C83.63148926 83.87744873 83.26297852 84.75489746 82.88330078 85.65893555 C79.77203213 92.88265348 74.71849627 98.67623179 69 104 C68.34 104 67.68 104 67 104 C67 118.19 67 132.38 67 147 C63.21890457 145.48756183 61.22698788 144.62364906 58.22265625 142.25390625 C54.04354339 139.02374512 49.76138417 135.97008845 45.4375 132.9375 C43.99856447 131.92597106 42.55976093 130.91425433 41.12109375 129.90234375 C40.41726563 129.41991211 39.7134375 128.93748047 38.98828125 128.44042969 C37 127 37 127 35.40234375 125.52050781 C29.73680987 120.50296937 23.30525798 121.66461172 16.125 121.875 C2.21222886 121.87056353 2.21222886 121.87056353 -1.6953125 118.71484375 C-3.93401065 115.89560184 -5.50402773 113.26476624 -7 110 C-7.83251248 108.79721992 -8.68203843 107.60563713 -9.5625 106.4375 C-11 104 -11 104 -11 102 C-8.74816482 100.87408241 -7.3208998 100.79814375 -4.81665039 100.66772461 C-3.95137222 100.62195786 -3.08609406 100.5761911 -2.19459534 100.52903748 C1.79387356 100.35154369 5.78265758 100.19538494 9.77270508 100.05786133 C11.86715687 99.97820656 13.96105333 99.88209261 16.05395508 99.76879883 C35.6673621 98.71655407 35.6673621 98.71655407 42.94140625 104.00390625 C44.28074219 105.32261719 45.62007813 106.64132813 47 108 C47.33 103.05 47.66 98.1 48 93 C50.475 92.01 50.475 92.01 53 91 C53 90.34 53 89.68 53 89 C54.44720532 87.82204218 55.89467871 86.64441162 57.34375 85.46875 C64.05960016 79.51318476 66.63387497 71.94018022 67.28515625 63.15234375 C67.80219199 47.76367917 63.81006342 39.3679251 53.375 28.1875 C45.39754711 22.19374529 36.24582917 20.80655265 26.625 20.8125 C18.9650017 20.74088148 18.9650017 20.74088148 15.359375 17.97265625 C13.375 15.375 13.375 15.375 11.671875 12.64453125 C9.49998461 9.2090878 6.7934626 7.0098392 3.6640625 4.47265625 C2 3 2 3 0 0 Z " fill="#0D0D0D" transform="translate(351,111)"/>
<path d="M0 0 C0.77729462 -0.00570007 1.55458923 -0.01140015 2.35543823 -0.01727295 C3.98743349 -0.02666107 5.61944718 -0.03323208 7.25146484 -0.03710938 C9.74219419 -0.04687503 12.23211784 -0.0779796 14.72265625 -0.109375 C16.31509931 -0.11590083 17.90754821 -0.12115295 19.5 -0.125 C20.23969025 -0.1373468 20.97938049 -0.1496936 21.7414856 -0.16241455 C26.21942758 -0.14315514 29.05134146 0.45241347 32.6171875 3.203125 C35.30516091 7.20648965 35.43146078 11.54322445 34.6171875 16.203125 C32.90350141 19.27374468 30.80817298 21.60763226 27.6171875 23.203125 C25.66252079 23.32226027 23.70413048 23.38232393 21.74609375 23.4140625 C-12.14486326 23.81180396 -12.14486326 23.81180396 -40.734375 40.3671875 C-44.90269981 45.00963456 -47.69326017 50.46926235 -50.4453125 56.015625 C-50.79529297 56.716875 -51.14527344 57.418125 -51.50585938 58.140625 C-53.91990825 63.05964738 -55.8747221 67.9248086 -57.3828125 73.203125 C-57.7128125 73.203125 -58.0428125 73.203125 -58.3828125 73.203125 C-58.44137014 69.20318753 -58.47659549 65.20336192 -58.5078125 61.203125 C-58.52457031 60.07777344 -58.54132813 58.95242187 -58.55859375 57.79296875 C-58.64987283 42.18424608 -53.47619238 27.49783664 -42.3828125 16.203125 C-38.90837144 13.12936083 -35.41296197 10.21079043 -31.2421875 8.140625 C-29.2072926 7.2363001 -29.2072926 7.2363001 -27.3828125 5.203125 C-25.51178227 4.45073803 -23.61037957 3.7725731 -21.6953125 3.140625 C-20.68082031 2.79902344 -19.66632813 2.45742187 -18.62109375 2.10546875 C-12.44416793 0.3842747 -6.36619039 0.03677813 0 0 Z " fill="#0E0E0E" transform="translate(296.3828125,148.796875)"/>
<path d="" fill="#FFFFFF" transform="translate(0,0)"/>
<path d="" fill="#FFFFFF" transform="translate(0,0)"/>
<path d="" fill="#FFFFFF" transform="translate(0,0)"/>
<path d="" fill="#FFFFFF" transform="translate(0,0)"/>
<path d="" fill="#FFFFFF" transform="translate(0,0)"/>
<path d="" fill="#FFFFFF" transform="translate(0,0)"/>
<path d="" fill="#FFFFFF" transform="translate(0,0)"/>
<path d="" fill="#FFFFFF" transform="translate(0,0)"/>
<path d="" fill="#FFFFFF" transform="translate(0,0)"/>
<path d="" fill="#FFFFFF" transform="translate(0,0)"/>
<path d="" fill="#FFFFFF" transform="translate(0,0)"/>
<path d="" fill="#FFFFFF" transform="translate(0,0)"/>
<path d="" fill="#FFFFFF" transform="translate(0,0)"/>
<path d="" fill="#FFFFFF" transform="translate(0,0)"/>
<path d="" fill="#FFFFFF" transform="translate(0,0)"/>
<path d="" fill="#FFFFFF" transform="translate(0,0)"/>
<path d="" fill="#FFFFFF" transform="translate(0,0)"/>
<path d="" fill="#FFFFFF" transform="translate(0,0)"/>
<path d="" fill="#FFFFFF" transform="translate(0,0)"/>
<path d="" fill="#FFFFFF" transform="translate(0,0)"/>
<path d="" fill="#FFFFFF" transform="translate(0,0)"/>
<path d="" fill="#FFFFFF" transform="translate(0,0)"/>
<path d="" fill="#FFFFFF" transform="translate(0,0)"/>
<path d="" fill="#FFFFFF" transform="translate(0,0)"/>
<path d="" fill="#FFFFFF" transform="translate(0,0)"/>
<path d="" fill="#FFFFFF" transform="translate(0,0)"/>
<path d="" fill="#FFFFFF" transform="translate(0,0)"/>
<path d="" fill="#FFFFFF" transform="translate(0,0)"/>
<path d="" fill="#FFFFFF" transform="translate(0,0)"/>
<path d="" fill="#FFFFFF" transform="translate(0,0)"/>
<path d="" fill="#FFFFFF" transform="translate(0,0)"/>
<path d="" fill="#FFFFFF" transform="translate(0,0)"/>
<path d="" fill="#FFFFFF" transform="translate(0,0)"/>
<path d="" fill="#FFFFFF" transform="translate(0,0)"/>
<path d="" fill="#FFFFFF" transform="translate(0,0)"/>
<path d="" fill="#FFFFFF" transform="translate(0,0)"/>
<path d="" fill="#FFFFFF" transform="translate(0,0)"/>
<path d="" fill="#FFFFFF" transform="translate(0,0)"/>
<path d="" fill="#FFFFFF" transform="translate(0,0)"/>
<path d="" fill="#FFFFFF" transform="translate(0,0)"/>
<path d="" fill="#FFFFFF" transform="translate(0,0)"/>
<path d="" fill="#FFFFFF" transform="translate(0,0)"/>
<path d="" fill="#FFFFFF" transform="translate(0,0)"/>
<path d="" fill="#FFFFFF" transform="translate(0,0)"/>
<path d="" fill="#FFFFFF" transform="translate(0,0)"/>
<path d="" fill="#FFFFFF" transform="translate(0,0)"/>
<path d="" fill="#FFFFFF" transform="translate(0,0)"/>
<path d="" fill="#FFFFFF" transform="translate(0,0)"/>
<path d="" fill="#FFFFFF" transform="translate(0,0)"/>
<path d="" fill="#FFFFFF" transform="translate(0,0)"/>
<path d="" fill="#FFFFFF" transform="translate(0,0)"/>
<path d="" fill="#FFFFFF" transform="translate(0,0)"/>
<path d="" fill="#FFFFFF" transform="translate(0,0)"/>
<path d="" fill="#FFFFFF" transform="translate(0,0)"/>
<path d="" fill="#FFFFFF" transform="translate(0,0)"/>
<path d="" fill="#FFFFFF" transform="translate(0,0)"/>
<path d="" fill="#FFFFFF" transform="translate(0,0)"/>
<path d="" fill="#FFFFFF" transform="translate(0,0)"/>
<path d="" fill="#FFFFFF" transform="translate(0,0)"/>
<path d="" fill="#FFFFFF" transform="translate(0,0)"/>
<path d="" fill="#FFFFFF" transform="translate(0,0)"/>
<path d="" fill="#FFFFFF" transform="translate(0,0)"/>
<path d="" fill="#FFFFFF" transform="translate(0,0)"/>
<path d="" fill="#FFFFFF" transform="translate(0,0)"/>
<path d="" fill="#FFFFFF" transform="translate(0,0)"/>
<path d="" fill="#FFFFFF" transform="translate(0,0)"/>
<path d="" fill="#FFFFFF" transform="translate(0,0)"/>
<path d="" fill="#FFFFFF" transform="translate(0,0)"/>
<path d="" fill="#FFFFFF" transform="translate(0,0)"/>
<path d="" fill="#FFFFFF" transform="translate(0,0)"/>
<path d="" fill="#FFFFFF" transform="translate(0,0)"/>
<path d="" fill="#FFFFFF" transform="translate(0,0)"/>
<path d="" fill="#FFFFFF" transform="translate(0,0)"/>
<path d="" fill="#FFFFFF" transform="translate(0,0)"/>
<path d="" fill="#FFFFFF" transform="translate(0,0)"/>
<path d="" fill="#FFFFFF" transform="translate(0,0)"/>
<path d="" fill="#FFFFFF" transform="translate(0,0)"/>
<path d="" fill="#FFFFFF" transform="translate(0,0)"/>
<path d="" fill="#FFFFFF" transform="translate(0,0)"/>
<path d="" fill="#FFFFFF" transform="translate(0,0)"/>
<path d="" fill="#FFFFFF" transform="translate(0,0)"/>
<path d="" fill="#FFFFFF" transform="translate(0,0)"/>
<path d="" fill="#FFFFFF" transform="translate(0,0)"/>
<path d="" fill="#FFFFFF" transform="translate(0,0)"/>
<path d="" fill="#FFFFFF" transform="translate(0,0)"/>
</svg>
